# File created by Blade
# Date/Time:  Thu Sep 25 18:48:06 2014
# Frame Rate: 120.000 fps
#------------------------------------------------------
:FULLY-SPECIFIED
:DEGREES
1093
root 1.430542 32.771712 1.978276 8.209862 5.273587 1.124901
Spine -14.519874 3.287851 -3.673168
Head 21.547215 -8.681370 5.500354
LeftShoulder -11.975184 -5.255634 39.957486
LeftArm 114.401835 -51.439122 -112.122458
LeftForeArm -28.435551 -0.000000 103.115951
LeftHand -11.043196 -0.000000 -3.368420
LeftHandThumb1 -26.253704 0.000000 33.147579
RightShoulder -13.407015 -3.853742 -23.909548
RightArm -83.657249 -69.470433 152.635511
RightForeArm -45.099875 -0.000000 88.330343
RightHand -0.556331 -0.000000 41.714399
RightHandThumb1 -24.326973 -0.000000 -32.862282
LeftUpLeg -2.754287 3.886924 2.425224
LeftLeg 0.227156 -0.000000 -0.000000
LeftFoot -10.922429 3.110493 -12.598496
LeftToeBase 11.261483 -0.000000 -0.000000
RightUpLeg -2.063881 -12.774815 -6.791004
RightLeg 3.764120 -0.000000 -0.000000
RightFoot -9.961992 -5.731781 6.646162
RightToeBase 1.379210 -0.000000 -0.000000
1094
root 1.435855 32.771116 1.997897 8.212269 5.345939 1.154326
Spine -14.431853 3.309099 -3.534252
Head 21.973564 -8.407055 5.466688
LeftShoulder -12.277037 -5.711710 40.411402
LeftArm 115.461610 -51.098976 -113.254308
LeftForeArm -29.046835 -0.000000 104.920087
LeftHand -10.825655 0.000000 -3.557998
LeftHandThumb1 -26.253704 0.000000 33.147579
RightShoulder -13.149063 -4.198560 -23.715343
RightArm -86.949366 -68.262703 157.414210
RightForeArm -44.863737 -0.000000 89.225541
RightHand 0.999478 -0.000000 41.418985
RightHandThumb1 -24.326973 -0.000000 -32.862282
LeftUpLeg -2.743669 3.739975 2.406628
LeftLeg 0.260294 -0.000000 -0.000000
LeftFoot -10.952816 3.158351 -12.615738
LeftToeBase 11.254659 -0.000000 -0.000000
RightUpLeg -2.017315 -12.780567 -6.826903
RightLeg 3.784178 -0.000000 -0.000000
RightFoot -10.008658 -5.794389 6.665945
RightToeBase 1.393221 -0.000000 -0.000000
1095
root 1.442841 32.765870 2.026613 8.105894 5.347302 1.188910
Spine -14.262062 3.438375 -3.401920
Head 22.468891 -8.177832 5.420778
LeftShoulder -12.440712 -5.976745 40.748276
LeftArm 116.849873 -50.737482 -114.526186
LeftForeArm -29.495924 0.000000 106.747371
LeftHand -10.426604 0.000000 -4.173490
LeftHandThumb1 -26.253704 0.000000 33.147579
RightShoulder -12.863912 -4.629104 -23.438796
RightArm -89.379056 -67.078650 161.270429
RightForeArm -44.657364 0.000000 90.455433
RightHand 1.821242 -0.000000 41.578208
RightHandThumb1 -24.326973 -0.000000 -32.862282
LeftUpLeg -2.575350 3.682312 2.377387
LeftLeg 0.248196 -0.000000 -0.000000
LeftFoot -11.006389 3.199397 -12.606660
LeftToeBase 11.199177 -0.000000 -0.000000
RightUpLeg -1.852286 -12.756734 -6.908135
RightLeg 3.792217 -0.000000 -0.000000
RightFoot -10.075095 -5.794526 6.718985
RightToeBase 1.381607 -0.000000 -0.000000
1096
root 1.448540 32.762641 2.052158 8.040791 5.391259 1.215292
Spine -14.138911 3.560256 -3.267728
Head 22.967980 -7.971786 5.382457
LeftShoulder -12.633059 -6.339040 41.149963
LeftArm 117.912896 -50.357594 -115.626214
LeftForeArm -29.966188 -0.000000 108.719539
LeftHand -10.535029 0.000000 -4.189011
LeftHandThumb1 -26.253704 0.000000 33.147579
RightShoulder -12.617444 -5.150029 -23.099993
RightArm -91.060659 -65.962546 164.492931
RightForeArm -44.415958 0.000000 91.617865
RightHand 1.748684 -0.000000 41.077715
RightHandThumb1 -24.326973 -0.000000 -32.862282
LeftUpLeg -2.478780 3.611617 2.358493
LeftLeg 0.272526 -0.000000 -0.000000
LeftFoot -11.056413 3.205125 -12.607105
LeftToeBase 11.251774 -0.000000 -0.000000
RightUpLeg -1.725315 -12.740258 -6.962052
RightLeg 3.798608 -0.000000 -0.000000
RightFoot -10.151743 -5.835301 6.767400
RightToeBase 1.463908 -0.000000 -0.000000
1097
root 1.453562 32.758032 2.085948 7.948467 5.568392 1.270217
Spine -14.006765 3.566161 -3.180308
Head 23.435759 -7.892003 5.451198
LeftShoulder -12.777921 -6.664960 41.538804
LeftArm 119.018433 -49.910427 -116.675392
LeftForeArm -30.444979 -0.000000 110.643273
LeftHand -10.284196 0.000000 -4.140199
LeftHandThumb1 -26.253704 0.000000 33.147579
RightShoulder -12.374888 -5.521869 -22.691833
RightArm -92.344233 -64.708265 167.384784
RightForeArm -44.248971 -0.000000 92.781882
RightHand 1.737749 -0.000000 41.005894
RightHandThumb1 -24.326973 -0.000000 -32.862282
LeftUpLeg -2.354163 3.399848 2.332717
LeftLeg 0.297262 -0.000000 -0.000000
LeftFoot -11.116125 3.242039 -12.589433
LeftToeBase 11.206200 -0.000000 -0.000000
RightUpLeg -1.502307 -12.888773 -7.041582
RightLeg 3.760122 -0.000000 -0.000000
RightFoot -10.208458 -5.830166 6.793591
RightToeBase 1.436256 -0.000000 -0.000000
1098
root 1.437565 32.754915 2.122302 7.911104 5.855170 1.283840
Spine -13.967877 3.455120 -3.121044
Head 23.950413 -7.806983 5.607597
LeftShoulder -12.918124 -6.999831 42.046276
LeftArm 119.963465 -49.480088 -117.633601
LeftForeArm -30.955738 -0.000000 112.609160
LeftHand -10.250286 0.000000 -4.005877
LeftHandThumb1 -26.253704 0.000000 33.147579
RightShoulder -12.177474 -5.925385 -22.134950
RightArm -93.225324 -63.508905 169.901234
RightForeArm -43.831206 -0.000000 93.968049
RightHand 1.575662 -0.000000 40.372198
RightHandThumb1 -24.326973 -0.000000 -32.862282
LeftUpLeg -2.304259 3.136821 2.404951
LeftLeg 0.323418 -0.000000 -0.000000
LeftFoot -11.124117 3.150581 -12.668655
LeftToeBase 11.131249 -0.000000 -0.000000
RightUpLeg -1.292179 -13.184690 -7.010194
RightLeg 3.660216 -0.000000 -0.000000
RightFoot -10.205927 -5.867750 6.674737
RightToeBase 1.313398 -0.000000 -0.000000
1099
root 1.438274 32.751268 2.143707 7.830518 5.935918 1.275959
Spine -13.836542 3.609916 -3.000744
Head 24.387037 -7.832971 5.677187
LeftShoulder -13.043340 -7.403497 42.487728
LeftArm 120.842935 -49.050816 -118.515068
LeftForeArm -31.617813 0.000000 114.607217
LeftHand -10.324876 -0.000000 -3.856493
LeftHandThumb1 -26.253704 0.000000 33.147579
RightShoulder -12.004361 -6.288911 -21.495064
RightArm -93.463932 -62.481054 171.617087
RightForeArm -44.199769 -0.000000 95.160644
RightHand 2.550286 0.000000 39.793068
RightHandThumb1 -24.326973 -0.000000 -32.862282
LeftUpLeg -2.209487 3.047002 2.429667
LeftLeg 0.350483 -0.000000 -0.000000
LeftFoot -11.192001 3.168111 -12.643899
LeftToeBase 11.183150 -0.000000 -0.000000
RightUpLeg -1.167666 -13.180709 -7.018250
RightLeg 3.697750 -0.000000 -0.000000
RightFoot -10.291503 -5.917999 6.758683
RightToeBase 1.371535 -0.000000 -0.000000
1100
root 1.435665 32.745027 2.174341 7.676081 6.088322 1.318364
Spine -13.620968 3.673243 -2.948069
Head 24.822365 -7.833313 5.780154
LeftShoulder -13.178138 -7.728749 42.919851
LeftArm 121.748337 -48.577500 -119.365084
LeftForeArm -32.259708 -0.000000 116.556540
LeftHand -10.142524 -0.000000 -3.939226
LeftHandThumb1 -26.253704 0.000000 33.147579
RightShoulder -11.881610 -6.580658 -20.836729
RightArm -93.338887 -61.434789 173.194771
RightForeArm -43.848221 -0.000000 96.228490
RightHand 2.173014 -0.000000 39.537731
RightHandThumb1 -24.326973 -0.000000 -32.862282
LeftUpLeg -2.017241 2.909247 2.426890
LeftLeg 0.349296 -0.000000 -0.000000
LeftFoot -11.229139 3.146685 -12.633910
LeftToeBase 11.150716 -0.000000 -0.000000
RightUpLeg -0.906451 -13.270906 -7.087232
RightLeg 3.684306 -0.000000 -0.000000
RightFoot -10.390006 -5.955697 6.779913
RightToeBase 1.370938 -0.000000 -0.000000
1101
root 1.440833 32.742995 2.177204 7.674707 6.053872 1.292062
Spine -13.561831 3.908966 -2.766373
Head 25.250170 -7.754374 5.902319
LeftShoulder -13.296723 -7.958352 43.224090
LeftArm 122.693816 -48.150870 -120.113266
LeftForeArm -32.872781 -0.000000 118.500081
LeftHand -9.899724 -0.000000 -3.644951
LeftHandThumb1 -26.253704 0.000000 33.147579
RightShoulder -11.772566 -6.871715 -20.210587
RightArm -92.960553 -60.628371 174.502019
RightForeArm -43.329694 -0.000000 97.254244
RightHand 2.968838 -0.000000 38.612711
RightHandThumb1 -24.326973 -0.000000 -32.862282
LeftUpLeg -2.038640 2.946106 2.431054
LeftLeg 0.416017 -0.000000 -0.000000
LeftFoot -11.300118 3.175995 -12.588972
LeftToeBase 11.157106 -0.000000 -0.000000
RightUpLeg -0.960254 -13.061733 -7.073808
RightLeg 3.796493 -0.000000 -0.000000
RightFoot -10.467743 -6.086957 6.884340
RightToeBase 1.385981 -0.000000 -0.000000
